<svg width="42" height="19" viewBox="0 0 42 19" fill="none" xmlns="http://www.w3.org/2000/svg">
<path d="M0.693604 13.9189V0.485409H3.68094V11.2931H9.63661V13.9189H0.693604Z" fill="white"/>
<path fill-rule="evenodd" clip-rule="evenodd" d="M15.0164 14.1282C14.065 14.1282 13.2025 13.9189 12.4286 13.5003C11.6675 13.069 11.065 12.4855 10.621 11.7497C10.1771 11.014 9.95508 10.1895 9.95508 9.27614C9.95508 8.36282 10.1771 7.54466 10.621 6.8216C11.065 6.09854 11.6675 5.5277 12.4286 5.10914C13.1897 4.6778 14.0524 4.46216 15.0164 4.46216C15.9805 4.46216 16.843 4.6715 17.6041 5.09006C18.3652 5.50868 18.9678 6.08588 19.4117 6.8216C19.8557 7.54466 20.0777 8.36282 20.0777 9.27614C20.0777 10.1895 19.8557 11.014 19.4117 11.7497C18.9678 12.4855 18.3652 13.069 17.6041 13.5003C16.843 13.9189 15.9805 14.1282 15.0164 14.1282ZM15.0164 11.4834C15.435 11.4834 15.8029 11.3946 16.12 11.217C16.4371 11.0267 16.6781 10.7667 16.843 10.4368C17.0206 10.0944 17.1094 9.70742 17.1094 9.27614C17.1094 8.84486 17.0206 8.47064 16.843 8.15354C16.6654 7.82372 16.4181 7.57004 16.1009 7.39244C15.7965 7.20212 15.435 7.10702 15.0164 7.10702C14.6105 7.10702 14.249 7.20212 13.9318 7.39244C13.6147 7.57004 13.3673 7.82372 13.1897 8.15354C13.0121 8.48336 12.9234 8.86388 12.9234 9.29516C12.9234 9.71378 13.0121 10.0944 13.1897 10.4368C13.3673 10.7667 13.6147 11.0267 13.9318 11.217C14.249 11.3946 14.6105 11.4834 15.0164 11.4834Z" fill="white"/>
<path fill-rule="evenodd" clip-rule="evenodd" d="M22.3835 17.5341C23.1573 17.8893 24.0516 18.0669 25.0664 18.0669C26.0558 18.0669 26.9374 17.8702 27.7112 17.477C28.485 17.0838 29.0938 16.5384 29.5378 15.8407C29.9818 15.143 30.2041 14.3185 30.2041 13.3671V4.6715H27.3496V5.2928C27.1374 5.11412 26.8963 4.96412 26.6266 4.84274C26.1319 4.60172 25.5674 4.48118 24.9332 4.48118C24.0833 4.48118 23.3285 4.68416 22.6689 5.09006C22.0092 5.4833 21.4892 6.02876 21.1086 6.72644C20.728 7.41146 20.5378 8.18522 20.5378 9.04784C20.5378 9.89774 20.728 10.6715 21.1086 11.3692C21.4892 12.0669 22.0092 12.6187 22.6689 13.0246C23.3285 13.4305 24.0833 13.6335 24.9332 13.6335C25.5547 13.6335 26.1192 13.513 26.6266 13.272C26.8724 13.1552 27.0944 13.0176 27.2926 12.8592V13.4432C27.2926 14.0901 27.0833 14.5912 26.6647 14.9464C26.2588 15.3016 25.6943 15.4791 24.9712 15.4791C24.3877 15.4791 23.8867 15.3777 23.4681 15.1747C23.0622 14.9718 22.6942 14.6736 22.3644 14.2804L20.5759 16.069C21.0198 16.7032 21.6224 17.1916 22.3835 17.5341ZM26.5315 10.7793C26.2397 10.9569 25.8909 11.0457 25.485 11.0457C25.0791 11.0457 24.7239 10.9569 24.4194 10.7793C24.1276 10.6017 23.8993 10.3607 23.7345 10.0563C23.5695 9.73916 23.4871 9.40298 23.4871 9.04784C23.4871 8.66726 23.5695 8.32478 23.7345 8.02034C23.8993 7.7159 24.134 7.47488 24.4384 7.29728C24.7429 7.11968 25.0917 7.03088 25.485 7.03088C25.8909 7.03088 26.2397 7.11968 26.5315 7.29728C26.8359 7.47488 27.0642 7.7159 27.2165 8.02034C27.3814 8.32478 27.4638 8.66726 27.4638 9.04784C27.4638 9.42836 27.3814 9.77084 27.2165 10.0753C27.0642 10.3671 26.8359 10.6017 26.5315 10.7793Z" fill="white"/>
<path fill-rule="evenodd" clip-rule="evenodd" d="M36.3306 14.1282C35.379 14.1282 34.5162 13.9189 33.7428 13.5003C32.9814 13.069 32.379 12.4855 31.935 11.7497C31.491 11.014 31.269 10.1895 31.269 9.27614C31.269 8.36282 31.491 7.54466 31.935 6.8216C32.379 6.09854 32.9814 5.5277 33.7428 5.10914C34.5036 4.6778 35.3664 4.46216 36.3306 4.46216C37.2942 4.46216 38.157 4.6715 38.9178 5.09006C39.6792 5.50868 40.2816 6.08588 40.7256 6.8216C41.1696 7.54466 41.3916 8.36282 41.3916 9.27614C41.3916 10.1895 41.1696 11.014 40.7256 11.7497C40.2816 12.4855 39.6792 13.069 38.9178 13.5003C38.157 13.9189 37.2942 14.1282 36.3306 14.1282ZM36.3306 11.4834C36.7488 11.4834 37.1166 11.3946 37.434 11.217C37.7508 11.0267 37.992 10.7667 38.157 10.4368C38.3346 10.0944 38.4234 9.70742 38.4234 9.27614C38.4234 8.84486 38.3346 8.47064 38.157 8.15354C37.9794 7.82372 37.7322 7.57004 37.4148 7.39244C37.1106 7.20212 36.7488 7.10702 36.3306 7.10702C35.9244 7.10702 35.5626 7.20212 35.2458 7.39244C34.9284 7.57004 34.6812 7.82372 34.5036 8.15354C34.326 8.48336 34.2372 8.86388 34.2372 9.29516C34.2372 9.71378 34.326 10.0944 34.5036 10.4368C34.6812 10.7667 34.9284 11.0267 35.2458 11.217C35.5626 11.3946 35.9244 11.4834 36.3306 11.4834Z" fill="white"/>
</svg>
