<svg width="75" height="28" viewBox="0 0 75 28" fill="none" xmlns="http://www.w3.org/2000/svg">
<g opacity="0.5">
<rect x="0.5" y="0.5" width="74" height="27" rx="13.5" stroke="white"/>
<path d="M23.2074 12.1108H21.8778C21.8267 11.8267 21.7315 11.5767 21.5923 11.3608C21.4531 11.1449 21.2827 10.9616 21.081 10.8111C20.8793 10.6605 20.6534 10.5469 20.4034 10.4702C20.1563 10.3935 19.8935 10.3551 19.6151 10.3551C19.1122 10.3551 18.6619 10.4815 18.2642 10.7344C17.8693 10.9872 17.5568 11.358 17.3267 11.8466C17.0994 12.3352 16.9858 12.9318 16.9858 13.6364C16.9858 14.3466 17.0994 14.946 17.3267 15.4347C17.5568 15.9233 17.8707 16.2926 18.2685 16.5426C18.6662 16.7926 19.1136 16.9176 19.6108 16.9176C19.8864 16.9176 20.1477 16.8807 20.3949 16.8068C20.6449 16.7301 20.8707 16.6179 21.0724 16.4702C21.2741 16.3224 21.4446 16.142 21.5838 15.929C21.7259 15.7131 21.8239 15.4659 21.8778 15.1875L23.2074 15.1918C23.1364 15.6207 22.9986 16.0156 22.794 16.3764C22.5923 16.7344 22.3324 17.044 22.0142 17.3054C21.6989 17.5639 21.3381 17.7642 20.9318 17.9062C20.5256 18.0483 20.0824 18.1193 19.6023 18.1193C18.8466 18.1193 18.1733 17.9403 17.5824 17.5824C16.9915 17.2216 16.5256 16.706 16.1847 16.0355C15.8466 15.3651 15.6776 14.5653 15.6776 13.6364C15.6776 12.7045 15.848 11.9048 16.1889 11.2372C16.5298 10.5668 16.9957 10.0526 17.5866 9.6946C18.1776 9.33381 18.8494 9.15341 19.6023 9.15341C20.0653 9.15341 20.4972 9.22017 20.8977 9.35369C21.3011 9.48437 21.6634 9.67756 21.9844 9.93324C22.3054 10.1861 22.571 10.4957 22.7812 10.8622C22.9915 11.2259 23.1335 11.642 23.2074 12.1108ZM25.4616 18H24.0639L27.2045 9.27273H28.7259L31.8665 18H30.4688L28.0014 10.858H27.9332L25.4616 18ZM25.696 14.5824H30.2301V15.6903H25.696V14.5824ZM33.1268 9.27273H34.4308V15.6818H34.5117L38.9521 9.27273H40.1708V18H38.854V11.5994H38.7731L34.3413 18H33.1268V9.27273ZM37.4862 7.05682H38.5344C38.5344 7.53693 38.364 7.92756 38.0231 8.22869C37.685 8.52699 37.2276 8.67614 36.6509 8.67614C36.0771 8.67614 35.6211 8.52699 35.283 8.22869C34.945 7.92756 34.7759 7.53693 34.7759 7.05682H35.82C35.82 7.26989 35.8825 7.45881 36.0075 7.62358C36.1325 7.78551 36.3469 7.86648 36.6509 7.86648C36.9492 7.86648 37.1623 7.78551 37.2901 7.62358C37.4208 7.46165 37.4862 7.27273 37.4862 7.05682ZM41.6612 10.4062V9.27273H48.4155V10.4062H45.6925V18H44.38V10.4062H41.6612ZM50.8327 12.7926H53.185C53.8327 12.7926 54.3839 12.8977 54.8384 13.108C55.293 13.3182 55.6396 13.6151 55.8782 13.9986C56.1197 14.3821 56.239 14.8338 56.2362 15.3537C56.239 15.8736 56.1197 16.3324 55.8782 16.7301C55.6396 17.1278 55.293 17.4389 54.8384 17.6634C54.3839 17.8878 53.8327 18 53.185 18H49.9165V9.27273H51.2376V16.892H53.185C53.5629 16.892 53.881 16.8182 54.1396 16.6705C54.4009 16.5227 54.5984 16.331 54.7319 16.0952C54.8683 15.8594 54.9364 15.6065 54.9364 15.3366C54.9364 14.9446 54.7859 14.608 54.4847 14.3267C54.1836 14.0426 53.7504 13.9006 53.185 13.9006H50.8327V12.7926ZM58.3626 9.27273V18H57.0415V9.27273H58.3626Z" fill="white"/>
</g>
</svg>
